<?xml version="1.0"?>
<svg width="640" height="480" xmlns="http://www.w3.org/2000/svg" xmlns:svg="http://www.w3.org/2000/svg">
 <!-- Created with SVG-edit - http://svg-edit.googlecode.com/ -->
 <g>
  <title>Layer 1</title>
  <path id="svg_2" d="m43.399994,41.200031l541,0l0,377l-541,0l0,-377z" stroke-linecap="null" stroke-linejoin="null" stroke-dasharray="null" stroke-width="5" stroke="#00007f" fill="#aad4ff"/>
  <text stroke="#000000" transform="matrix(2.9595327336094717,0,0,4.062227665505596,-400.302714077866,-368.91676832540253) " fill="#00007f" stroke-width="0" x="242.349242" y="129.974884" id="svg_1" font-size="24" font-family="Fantasy" text-anchor="middle" xml:space="preserve" font-weight="normal" font-style="normal">Jorge Alcain</text>
  <path stroke="#00007f" id="svg_3" d="m242.920779,343.916118l141.850299,0.061573l-4.603075,7.734615l-132.589802,-0.184713l-4.657428,-7.611476l0.000006,0zm0.974811,-102.887923l139.95483,-0.184713l4.061645,7.934534l-148.132339,0.061573l4.115864,-7.811394zm-13.811832,51.555751l167.470111,-0.184713l-0.216475,7.934541l-167.145326,-0.12314l-0.10831,-7.626688zm167.608742,0.735923c0,52.528517 -37.593292,95.261001 -83.809287,95.261001c-46.196028,0 -83.782314,-42.740207 -83.782314,-95.261001c0,-52.52105 37.593079,-95.253526 83.782314,-95.253526c46.216001,-0.007717 83.809287,42.732476 83.809287,95.253526zm-83.802706,-102.88793c-49.883652,0 -90.476948,46.151203 -90.476948,102.880193c0,56.73672 40.593302,102.887916 90.476948,102.887916c49.910813,0 90.497334,-46.151196 90.497334,-102.887916c0,-56.72899 -40.586515,-102.880193 -90.497334,-102.880193zm25.39037,102.88793c0,56.131094 -13.376112,95.261001 -25.39037,95.261001c-12.000666,0 -25.376565,-39.129907 -25.376565,-95.261001c0,-56.146547 13.369307,-95.253526 25.376565,-95.253526c12.007477,-0.007717 25.39037,39.106979 25.39037,95.253526zm-25.39037,-102.88793c-20.839199,0 -32.084785,53.011336 -32.084785,102.880193c0,49.884083 11.245586,102.887916 32.084785,102.887916c20.839412,0 32.105378,-53.011543 32.105378,-102.887916c-0.006793,-49.868857 -11.265966,-102.880193 -32.105378,-102.880193zm59.464128,102.88793c0,52.528517 -26.684722,95.261001 -59.464128,95.261001c-32.772594,0 -59.443742,-42.740207 -59.443742,-95.261001c0,-52.52105 26.671148,-95.253526 59.443742,-95.253526c32.779405,-0.007717 59.464128,42.732476 59.464128,95.253526zm-59.464128,-102.88793c-36.467223,0 -66.151956,46.151203 -66.151956,102.880193c0,56.73672 29.684732,102.887916 66.151956,102.887916c36.48081,0 66.158956,-46.151196 66.158956,-102.887916c0,-56.72899 -29.678146,-102.880193 -66.158956,-102.880193z" stroke-linecap="null" stroke-linejoin="null" stroke-dasharray="null" stroke-width="5" fill="#00007f"/>
 </g>
</svg>